<?xml version="1.0" standalone="no"?>
<!DOCTYPE svg PUBLIC "-//W3C//DTD SVG 20010904//EN"
 "http://www.w3.org/TR/2001/REC-SVG-20010904/DTD/svg10.dtd">
<svg version="1.0" xmlns="http://www.w3.org/2000/svg"
 width="512.000000pt" height="512.000000pt" viewBox="0 0 512.000000 512.000000"
 preserveAspectRatio="xMidYMid meet">
<metadata>
Created by potrace 1.14, written by Peter Selinger 2001-2017
</metadata>
<g transform="translate(0.000000,512.000000) scale(0.100000,-0.100000)"
fill="#000000" stroke="none">
<path d="M2795 4874 c-16 -9 -59 -44 -95 -79 l-65 -63 -140 -6 c-77 -4 -158
-9 -180 -12 -231 -29 -531 -138 -723 -261 l-53 -34 -40 32 c-86 68 -163 59
-267 -30 -416 -360 -662 -894 -662 -1441 0 -411 134 -807 387 -1149 128 -172
420 -431 520 -461 58 -18 123 1 169 48 l33 34 58 -28 c268 -127 497 -182 792
-190 l164 -4 16 -47 c11 -31 29 -57 54 -77 54 -43 115 -44 282 -1 666 168
1177 627 1400 1255 29 82 59 198 81 320 25 133 25 467 0 600 -79 428 -246 751
-540 1046 -280 280 -627 466 -1024 549 -91 19 -129 18 -167 -1z m263 -155
c493 -125 921 -467 1151 -919 307 -605 240 -1299 -178 -1860 -236 -316 -596
-557 -983 -659 -62 -17 -129 -31 -148 -33 l-35 -3 -3 420 -2 421 142 0 c472 3
885 252 1090 659 37 73 78 176 78 197 0 4 -514 8 -1143 8 l-1143 0 -17 53
c-55 176 -67 396 -31 565 4 19 3 23 -4 12 -15 -23 -34 -124 -42 -225 -10 -118
4 -268 35 -389 14 -53 25 -97 25 -99 0 -1 -235 -1 -522 0 l-523 2 -24 58 c-18
43 -25 84 -29 156 -5 112 7 183 46 267 36 75 36 78 12 51 l-21 -25 6 30 c35
156 98 326 166 451 81 146 219 319 339 423 l61 53 73 -79 73 -78 49 43 c127
112 338 229 522 291 184 61 428 98 567 86 l70 -6 84 84 c96 97 71 92 259 45z
m482 -1844 c0 -79 67 -210 102 -199 27 8 51 -15 44 -42 -5 -20 2 -27 56 -53
35 -17 83 -35 108 -39 25 -4 45 -12 45 -17 -1 -17 -137 -125 -220 -175 -213
-128 -455 -189 -705 -177 -381 19 -693 184 -899 478 -46 65 -112 189 -126 237
l-6 22 800 0 801 0 0 -35z m-2134 -62 c28 -88 66 -143 99 -143 27 0 48 -22 39
-43 -3 -10 2 -20 16 -27 31 -16 18 -26 -61 -45 -111 -28 -270 -18 -374 23 -96
38 -197 112 -254 185 -22 30 -41 57 -41 60 0 4 128 7 285 7 263 0 286 -1 291
-17z m503 -70 c36 -72 102 -171 167 -250 l26 -32 -48 -56 c-26 -30 -51 -55
-54 -55 -6 0 -214 254 -248 302 -12 16 -7 25 47 85 34 36 61 70 61 74 0 21 12
4 49 -68z m-1128 -19 c20 -39 122 -129 190 -169 123 -72 265 -102 395 -84 110
15 177 41 277 107 22 15 41 21 46 16 4 -5 70 -84 145 -176 76 -93 139 -168
141 -168 2 0 36 43 76 95 80 106 68 103 146 33 105 -94 265 -182 445 -243
l106 -37 21 -86 c32 -135 40 -194 51 -376 7 -119 7 -173 0 -180 -7 -7 -90 -11
-233 -11 -193 1 -236 4 -327 23 -234 51 -440 138 -627 265 l-112 76 -3 -140
-3 -139 -95 74 c-119 92 -274 253 -363 376 -82 115 -195 341 -235 470 -26 81
-37 127 -68 278 -6 30 9 28 27 -4z"/>
<path d="M596 784 c-22 -21 -20 -51 3 -64 12 -6 114 -10 260 -10 l241 0 0
-145 0 -145 -248 0 c-180 0 -251 -3 -260 -12 -17 -17 -15 -44 4 -62 13 -14 53
-16 285 -16 256 0 270 1 289 20 19 19 20 33 20 218 0 180 -2 200 -18 215 -16
15 -51 17 -290 17 -233 0 -273 -2 -286 -16z"/>
<path d="M1434 786 c-18 -13 -19 -28 -19 -221 0 -193 1 -208 19 -221 30 -22
542 -21 574 2 21 15 22 20 22 218 0 184 -2 204 -18 219 -16 15 -51 17 -288 17
-218 0 -274 -3 -290 -14z m504 -218 l-3 -143 -212 -3 -212 -2 -3 141 c-2 77
-1 143 1 145 2 2 100 4 218 4 l214 0 -3 -142z"/>
<path d="M2271 786 c-8 -10 -12 -78 -12 -222 0 -186 2 -210 17 -221 13 -10 83
-13 277 -13 l259 0 70 -51 c71 -51 102 -59 121 -28 16 26 2 45 -73 99 l-70 52
0 188 c0 177 -1 190 -19 200 -12 6 -123 10 -289 10 -219 0 -272 -3 -281 -14z
m499 -197 l0 -120 -77 56 c-108 77 -138 92 -158 75 -33 -27 -18 -55 63 -116
l77 -59 -155 -3 c-85 -1 -160 0 -167 2 -10 4 -13 39 -13 139 0 74 3 137 7 140
3 4 100 7 215 7 l208 0 0 -121z"/>
<path d="M3107 782 c-15 -16 -17 -47 -17 -220 0 -196 1 -201 22 -216 31 -22
361 -23 434 -1 161 48 207 276 79 393 -23 22 -60 45 -81 51 -22 6 -125 11
-230 11 -172 0 -193 -2 -207 -18z m432 -85 c60 -31 88 -127 58 -200 -29 -69
-58 -78 -247 -75 l-165 3 -3 143 -3 142 168 0 c113 0 176 -4 192 -13z"/>
<path d="M3947 782 c-24 -26 -25 -223 -1 -246 13 -14 51 -16 260 -16 l244 0 0
-50 0 -50 -248 0 c-180 0 -251 -3 -260 -12 -17 -17 -15 -44 4 -62 13 -14 54
-16 288 -16 330 0 306 -11 306 139 0 56 -5 111 -10 122 -10 18 -24 19 -260 19
l-250 0 0 50 0 50 246 2 c236 3 247 4 260 23 12 18 11 24 -2 43 -15 22 -18 22
-288 22 -252 0 -274 -1 -289 -18z"/>
</g>
</svg>
